<?xml version="1.0" standalone="no"?><!DOCTYPE svg PUBLIC "-//W3C//DTD SVG 1.1//EN" "http://www.w3.org/Graphics/SVG/1.1/DTD/svg11.dtd"><svg t="1740670812886" class="icon" viewBox="0 0 1024 1024" version="1.1" xmlns="http://www.w3.org/2000/svg" p-id="6682" xmlns:xlink="http://www.w3.org/1999/xlink" width="200" height="200"><path d="M377.6 145.066667c-70.4 23.466667-132.266667 76.8-132.266667 76.8l104.533334 44.8 138.666666-66.133334 21.333334-66.133333s-70.4-8.533333-132.266667 10.666667z m0 0" fill="#333333" p-id="6683"></path><path d="M475.733333 458.666667l-125.866666-110.933334-177.066667-6.4 17.066667 219.733334 93.866666 55.466666 72.533334 230.4 241.066666-256 6.4-132.266666h-128z m0 0" fill="#5C6BC0" p-id="6684"></path><path d="M827.733333 283.733333l-153.6-104.533333L618.666667 234.666667l21.333333 93.866666 104.533333 38.4 59.733334 59.733334 66.133333 49.066666-49.066667 59.733334-93.866666 281.6 149.333333-149.333334 21.333333-198.4-70.4-185.6z m0 0" fill="#333333" p-id="6685"></path><path d="M512 151.466667c198.4 0 360.533333 162.133333 360.533333 360.533333 0 198.4-162.133333 360.533333-360.533333 360.533333-198.4 0-360.533333-162.133333-360.533333-360.533333 0-198.4 162.133333-360.533333 360.533333-360.533333M512 85.333333C277.333333 85.333333 85.333333 277.333333 85.333333 512s192 426.666667 426.666667 426.666667 426.666667-192 426.666667-426.666667S746.666667 85.333333 512 85.333333z m0 0" fill="#333333" p-id="6686"></path></svg>